<?xml version="1.0" encoding="UTF-8"?>
<svg width="95px" height="90px" viewBox="0 0 95 90" version="1.1" xmlns="http://www.w3.org/2000/svg" xmlns:xlink="http://www.w3.org/1999/xlink">
    <!-- Generator: Sketch 62 (91390) - https://sketch.com -->
    <title>Path</title>
    <desc>Created with Sketch.</desc>
    <g id="Designs" stroke="none" stroke-width="1" fill="none" fill-rule="evenodd">
        <path d="M94.0964618,39.0435473 L22.3211789,39.2864987 L22.3211789,39.2864987 L53.4033506,9.28689433 C54.1981171,8.51980893 54.220557,7.25367781 53.4534716,6.45891132 C53.4354272,6.44021568 53.4170201,6.42187346 53.3982608,6.4038951 L48.0126125,1.24243081 C47.237032,0.499134708 46.0127916,0.501296041 45.2398404,1.24732599 L1.49098173,43.4724466 C0.696215245,44.239532 0.673775292,45.5056631 1.44086069,46.3004296 C1.45727031,46.3174314 1.47397995,46.3341411 1.49098173,46.3505507 L45.2349415,88.570943 C46.009862,89.3188737 47.2378829,89.3188737 48.0128034,88.570943 L53.3516825,83.4180129 C54.1464489,82.6509275 54.1688889,81.3847964 53.4018035,80.5900299 C53.3858081,80.5734573 53.3695277,80.5571623 53.3529695,80.5411521 L22.3211789,50.5364987 L22.3211789,50.5364987 L94.1032316,50.2935244 C94.6541918,50.2916594 95.0998467,49.8444934 95.0998467,49.2935301 L95.0998467,40.0435416 C95.0998467,39.4912568 94.6521315,39.0435416 94.0998467,39.0435416 C94.0987184,39.0435416 94.0975901,39.0435435 94.0964618,39.0435473 Z" id="Path" fill="#94ABF2" fill-rule="nonzero" transform="translate(47.549923, 44.911499) rotate(-180.000000) translate(-47.549923, -44.911499) "></path>
    </g>
</svg>