<?xml version="1.0" encoding="UTF-8"?>
<svg width="31px" height="32px" viewBox="0 0 31 32" version="1.1" xmlns="http://www.w3.org/2000/svg" xmlns:xlink="http://www.w3.org/1999/xlink">
    <!-- Generator: Sketch 58 (84663) - https://sketch.com -->
    <title>noun_Tree_2740852</title>
    <desc>Created with Sketch.</desc>
    <g id="Designs" stroke="none" stroke-width="1" fill="none" fill-rule="evenodd">
        <g id="Desktop---Homepage-v2" transform="translate(-1249.000000, -2021.000000)" fill="#262324" fill-rule="nonzero" stroke="#262324">
            <g id="noun_Tree_2740852" transform="translate(1250.000000, 2022.000000)">
                <path d="M23.734375,30 L7.03794643,30 L7,29.5621891 C7,29.5223881 7,29.4427861 7,29.4029851 C7,28.0099502 7.91071429,26.7363184 9.390625,26.0597015 C9.73214286,23.7512438 12.0848214,22 14.8928571,22 C16.7901786,22 18.6116071,22.8358209 19.5982143,24.1492537 C22.1026786,24.5074627 24,26.3781095 24,28.5273632 C24,28.9253731 23.9241071,29.3233831 23.8102679,29.721393 L23.734375,30 Z M7.72098214,29.2039801 L23.1651786,29.2039801 C23.203125,28.9651741 23.2410714,28.7661692 23.2410714,28.5273632 C23.2410714,26.7363184 21.5714286,25.1840796 19.3325893,24.9054726 L19.1808036,24.9054726 L19.0669643,24.7860697 C18.2321429,23.5522388 16.6004464,22.7960199 14.8549107,22.7960199 C12.3504464,22.7960199 10.2254464,24.3482587 10.0736607,26.3781095 L10.0357143,26.6169154 L9.80803571,26.6965174 C8.63169643,27.2139303 7.83482143,28.1293532 7.72098214,29.2039801 Z" id="Shape"></path>
                <path d="M7.7975421,14 C6.0392728,14 4.73968245,13.6078431 3.97521754,12.8235294 C1.98760877,10.7843137 0.229339474,2.98039216 0.152892982,2.62745098 L0,2 L0.61157193,2.19607843 C0.917357894,2.2745098 8.56200701,4.07843137 10.5496158,6.11764706 C12.5754478,8.19607843 12.3190055,12.9154327 12.3190055,13.1115111 L12.2807823,13.3860209 L12.0514428,13.4644523 C11.9367731,13.4252366 9.70870438,14 7.7975421,14 Z M1.07025088,3.09803922 C1.52892982,5.01960784 3.0196364,10.7058824 4.54856623,12.2745098 C5.16013816,12.9019608 6.26861228,13.2156863 7.7975421,13.2156863 C9.21180219,13.2156863 10.587839,12.9411765 11.1611877,12.8235294 C11.2758575,11.8431373 11.5434202,8.23529412 10.0144903,6.66666667 C8.48556052,5.09803922 2.90496667,3.56862745 1.07025088,3.09803922 Z" id="Shape"></path>
                <path d="M15.2621359,22.4938335 C15.1067961,21.3782956 14.8737864,20.6494024 14.5631068,19.4940239 C13.5533981,15.4701195 12.3883495,13.5011504 12,13.5011504 L12,12.7043376 C13.592233,12.7043376 14.9514563,17.8207171 15.3009709,19.2948207 C15.6116505,20.4900398 15.8446602,21.2189331 16,22.3743115 L15.2621359,22.4938335 Z" id="Path"></path>
                <path d="M15.5159211,20 L15,19.1607869 C15,16.3047496 19.4200316,8.58572462 21.7347935,8.00066234 C21.7960289,7.98518493 21.884431,8.24096266 22,8.76799552 C20.5185185,8.76799552 15.5159211,17.030631 15.5159211,20 Z" id="Path"></path>
                <path d="M22.9947415,9 C22.2304358,9 21.6481077,8.91964286 21.6481077,8.91964286 L21.3933392,8.87946429 L21.3205482,8.63839286 C21.2841527,8.47767857 20.374265,4.5 21.7936898,2.97321429 C23.1403235,1.48660714 28.1992989,0.200892857 28.4176719,0.160714286 L29,0 L28.854418,0.642857143 C28.8180225,0.803571429 27.6533663,6.42857143 26.3067325,7.91517857 C25.5060314,8.79910714 24.0502112,9 22.9947415,9 Z M21.9756673,8.15625 C22.7035774,8.23660714 24.8509123,8.39732143 25.7971955,7.35267857 C26.6706876,6.38839286 27.6169708,2.93303571 28.0173213,1.04464286 C26.343128,1.52678571 23.176719,2.53125 22.3032269,3.49553571 C21.4661302,4.45982143 21.7572943,6.95089286 21.9756673,8.15625 Z" id="Shape"></path>
            </g>
        </g>
    </g>
</svg>